# MagicaVoxel @ Ephtracy

# group
o throne-roomobj

# material
mtllib Throneroom-Slice-Green.mtl
usemtl palette

# normals
vn -1 0 0
vn 1 0 0
vn 0 0 1
vn 0 0 -1
vn 0 -1 0
vn 0 1 0

# texcoords
vt 0.0410156 0.5
vt 0.904297 0.5
vt 0.986328 0.5

# verts
v -1.1 0.2 8.5
v -1.1 0.2 2.6
v -1.1 0.4 2.9
v -1.1 0.4 2.6
v -1.1 0.6 3.2
v -1.1 0.6 2.9
v -1.1 0.8 3.5
v -1.1 0.8 3.2
v -1.1 1 3.8
v -1.1 1 3.5
v -1.1 1.2 4.1
v -1.1 1.2 3.8
v -1.1 1.4 4.4
v -1.1 1.4 4.1
v -1.1 1.6 4.7
v -1.1 1.6 4.4
v -1.1 1.8 5
v -1.1 1.8 4.7
v -1.1 2 5.3
v -1.1 2 5
v -1.1 2.2 5.6
v -1.1 2.2 5.3
v -1.1 2.4 5.9
v -1.1 2.4 5.6
v -1.1 2.6 6.2
v -1.1 2.6 5.9
v -1.1 2.8 6.5
v -1.1 2.8 6.2
v -1.1 3 6.8
v -1.1 3 6.5
v -1.1 3.2 8.5
v -1.1 3.2 6.8
v -0.7 3.2 7.8
v -0.7 3.2 7.7
v -0.7 3.2 7.6
v -0.7 3.2 7.5
v -0.7 3.3 7.8
v -0.7 3.3 7.7
v -0.7 3.3 7.6
v -0.7 3.3 7.5
v -0.7 3.5 7.7
v -0.7 3.5 7.5
v -0.7 3.7 7.8
v -0.7 3.7 7.7
v -0.5 3.2 7.8
v -0.5 3.2 7.7
v -0.5 3.2 7.6
v -0.5 3.2 7.5
v -0.5 3.3 7.8
v -0.5 3.3 7.7
v -0.5 3.3 7.6
v -0.5 3.3 7.5
v -0.5 3.4 7.7
v -0.5 3.4 7.5
v -0.5 3.5 7.7
v -0.5 3.5 7.5
v -0.6 3.2 7.8
v -0.6 3.2 7.7
v -0.6 3.2 7.6
v -0.6 3.2 7.5
v -0.6 3.3 7.8
v -0.6 3.3 7.7
v -0.6 3.3 7.6
v -0.6 3.3 7.5
v -0.6 3.4 7.7
v -0.6 3.4 7.5
v -0.6 3.5 7.7
v -0.6 3.5 7.5
v -0.4 3.2 7.8
v -0.4 3.2 7.7
v -0.4 3.2 7.6
v -0.4 3.2 7.5
v -0.4 3.3 7.8
v -0.4 3.3 7.7
v -0.4 3.3 7.6
v -0.4 3.3 7.5
v -0.4 3.5 7.7
v -0.4 3.5 7.5
v -0.4 3.7 7.8
v -0.4 3.7 7.7
v -0.1 2.6 8
v -0.1 2.6 7.9
v -0.1 2.7 8
v -0.1 2.7 7.9
v 0 0.2 8.5
v 0 0.2 2.6
v 0 0.4 2.9
v 0 0.4 2.6
v 0 0.6 3.2
v 0 0.6 2.9
v 0 0.8 3.5
v 0 0.8 3.2
v 0 1 3.8
v 0 1 3.5
v 0 1.2 4.1
v 0 1.2 3.8
v 0 1.4 4.4
v 0 1.4 4.1
v 0 1.6 4.7
v 0 1.6 4.4
v 0 1.8 5
v 0 1.8 4.7
v 0 2 5.3
v 0 2 5
v 0 2.2 5.6
v 0 2.2 5.3
v 0 2.4 5.9
v 0 2.4 5.6
v 0 2.6 8
v 0 2.6 7.9
v 0 2.6 6.2
v 0 2.6 5.9
v 0 2.7 8
v 0 2.7 7.9
v 0 2.8 6.5
v 0 2.8 6.2
v 0 3 6.8
v 0 3 6.5
v 0 3.2 8.5
v 0 3.2 6.8
v -1.1 0.2 8.5
v -1.1 3.2 8.5
v 0 0.2 8.5
v 0 3.2 8.5
v -0.1 2.6 7.9
v -0.1 2.7 7.9
v 0 2.6 7.9
v 0 2.7 7.9
v -0.7 3.2 7.8
v -0.7 3.3 7.8
v -0.7 3.7 7.8
v -0.6 3.2 7.8
v -0.6 3.3 7.8
v -0.5 3.2 7.8
v -0.5 3.3 7.8
v -0.4 3.2 7.8
v -0.4 3.3 7.8
v -0.4 3.7 7.8
v -0.7 3.2 7.6
v -0.7 3.3 7.6
v -0.6 3.2 7.6
v -0.6 3.3 7.6
v -0.5 3.2 7.6
v -0.5 3.3 7.6
v -0.4 3.2 7.6
v -0.4 3.3 7.6
v -0.1 2.6 8
v -0.1 2.7 8
v 0 2.6 8
v 0 2.7 8
v -0.7 3.2 7.7
v -0.7 3.3 7.7
v -0.7 3.5 7.7
v -0.7 3.7 7.7
v -0.6 3.2 7.7
v -0.6 3.3 7.7
v -0.6 3.4 7.7
v -0.6 3.5 7.7
v -0.5 3.2 7.7
v -0.5 3.3 7.7
v -0.5 3.4 7.7
v -0.5 3.5 7.7
v -0.4 3.2 7.7
v -0.4 3.3 7.7
v -0.4 3.5 7.7
v -0.4 3.7 7.7
v -0.7 3.2 7.5
v -0.7 3.3 7.5
v -0.7 3.5 7.5
v -0.6 3.2 7.5
v -0.6 3.3 7.5
v -0.6 3.4 7.5
v -0.6 3.5 7.5
v -0.5 3.2 7.5
v -0.5 3.3 7.5
v -0.5 3.4 7.5
v -0.5 3.5 7.5
v -0.4 3.2 7.5
v -0.4 3.3 7.5
v -0.4 3.5 7.5
v -1.1 3 6.8
v -1.1 3.2 6.8
v -0.8 3 6.8
v -0.8 3.2 6.8
v -0.3 3 6.8
v -0.3 3.2 6.8
v 0 3 6.8
v 0 3.2 6.8
v -1.1 2.8 6.5
v -1.1 3 6.5
v -0.8 2.8 6.5
v -0.8 3 6.5
v -0.3 2.8 6.5
v -0.3 3 6.5
v 0 2.8 6.5
v 0 3 6.5
v -1.1 2.6 6.2
v -1.1 2.8 6.2
v -0.8 2.6 6.2
v -0.8 2.8 6.2
v -0.3 2.6 6.2
v -0.3 2.8 6.2
v 0 2.6 6.2
v 0 2.8 6.2
v -1.1 2.4 5.9
v -1.1 2.6 5.9
v -0.8 2.4 5.9
v -0.8 2.6 5.9
v -0.3 2.4 5.9
v -0.3 2.6 5.9
v 0 2.4 5.9
v 0 2.6 5.9
v -1.1 2.2 5.6
v -1.1 2.4 5.6
v -0.8 2.2 5.6
v -0.8 2.4 5.6
v -0.3 2.2 5.6
v -0.3 2.4 5.6
v 0 2.2 5.6
v 0 2.4 5.6
v -1.1 2 5.3
v -1.1 2.2 5.3
v -0.8 2 5.3
v -0.8 2.2 5.3
v -0.3 2 5.3
v -0.3 2.2 5.3
v 0 2 5.3
v 0 2.2 5.3
v -1.1 1.8 5
v -1.1 2 5
v -0.8 1.8 5
v -0.8 2 5
v -0.3 1.8 5
v -0.3 2 5
v 0 1.8 5
v 0 2 5
v -1.1 1.6 4.7
v -1.1 1.8 4.7
v -0.8 1.6 4.7
v -0.8 1.8 4.7
v -0.3 1.6 4.7
v -0.3 1.8 4.7
v 0 1.6 4.7
v 0 1.8 4.7
v -1.1 1.4 4.4
v -1.1 1.6 4.4
v -0.8 1.4 4.4
v -0.8 1.6 4.4
v -0.3 1.4 4.4
v -0.3 1.6 4.4
v 0 1.4 4.4
v 0 1.6 4.4
v -1.1 1.2 4.1
v -1.1 1.4 4.1
v -0.8 1.2 4.1
v -0.8 1.4 4.1
v -0.3 1.2 4.1
v -0.3 1.4 4.1
v 0 1.2 4.1
v 0 1.4 4.1
v -1.1 1 3.8
v -1.1 1.2 3.8
v -0.8 1 3.8
v -0.8 1.2 3.8
v -0.3 1 3.8
v -0.3 1.2 3.8
v 0 1 3.8
v 0 1.2 3.8
v -1.1 0.8 3.5
v -1.1 1 3.5
v -0.8 0.8 3.5
v -0.8 1 3.5
v -0.3 0.8 3.5
v -0.3 1 3.5
v 0 0.8 3.5
v 0 1 3.5
v -1.1 0.6 3.2
v -1.1 0.8 3.2
v -0.8 0.6 3.2
v -0.8 0.8 3.2
v -0.3 0.6 3.2
v -0.3 0.8 3.2
v 0 0.6 3.2
v 0 0.8 3.2
v -1.1 0.4 2.9
v -1.1 0.6 2.9
v -0.8 0.4 2.9
v -0.8 0.6 2.9
v -0.3 0.4 2.9
v -0.3 0.6 2.9
v 0 0.4 2.9
v 0 0.6 2.9
v -1.1 0.2 2.6
v -1.1 0.4 2.6
v -0.8 0.2 2.6
v -0.8 0.4 2.6
v -0.3 0.2 2.6
v -0.3 0.4 2.6
v 0 0.2 2.6
v 0 0.4 2.6
v -1.1 0.2 8.5
v 0 0.2 8.5
v -0.8 0.2 6.9
v -0.3 0.2 6.9
v -1.1 0.2 2.6
v -0.8 0.2 2.6
v -0.3 0.2 2.6
v 0 0.2 2.6
v -0.1 2.7 8
v 0 2.7 8
v -0.1 2.7 7.9
v 0 2.7 7.9
v -0.6 3.3 7.8
v -0.5 3.3 7.8
v -0.7 3.3 7.7
v -0.6 3.3 7.7
v -0.5 3.3 7.7
v -0.4 3.3 7.7
v -0.7 3.3 7.6
v -0.6 3.3 7.6
v -0.5 3.3 7.6
v -0.4 3.3 7.6
v -0.6 3.3 7.5
v -0.5 3.3 7.5
v -1.1 0.4 2.9
v -0.8 0.4 2.9
v -0.3 0.4 2.9
v 0 0.4 2.9
v -1.1 0.4 2.6
v -0.8 0.4 2.6
v -0.3 0.4 2.6
v 0 0.4 2.6
v -1.1 0.6 3.2
v -0.8 0.6 3.2
v -0.3 0.6 3.2
v 0 0.6 3.2
v -1.1 0.6 2.9
v -0.8 0.6 2.9
v -0.3 0.6 2.9
v 0 0.6 2.9
v -1.1 0.8 3.5
v -0.8 0.8 3.5
v -0.3 0.8 3.5
v 0 0.8 3.5
v -1.1 0.8 3.2
v -0.8 0.8 3.2
v -0.3 0.8 3.2
v 0 0.8 3.2
v -1.1 1 3.8
v -0.8 1 3.8
v -0.3 1 3.8
v 0 1 3.8
v -1.1 1 3.5
v -0.8 1 3.5
v -0.3 1 3.5
v 0 1 3.5
v -1.1 1.2 4.1
v -0.8 1.2 4.1
v -0.3 1.2 4.1
v 0 1.2 4.1
v -1.1 1.2 3.8
v -0.8 1.2 3.8
v -0.3 1.2 3.8
v 0 1.2 3.8
v -1.1 1.4 4.4
v -0.8 1.4 4.4
v -0.3 1.4 4.4
v 0 1.4 4.4
v -1.1 1.4 4.1
v -0.8 1.4 4.1
v -0.3 1.4 4.1
v 0 1.4 4.1
v -1.1 1.6 4.7
v -0.8 1.6 4.7
v -0.3 1.6 4.7
v 0 1.6 4.7
v -1.1 1.6 4.4
v -0.8 1.6 4.4
v -0.3 1.6 4.4
v 0 1.6 4.4
v -1.1 1.8 5
v -0.8 1.8 5
v -0.3 1.8 5
v 0 1.8 5
v -1.1 1.8 4.7
v -0.8 1.8 4.7
v -0.3 1.8 4.7
v 0 1.8 4.7
v -1.1 2 5.3
v -0.8 2 5.3
v -0.3 2 5.3
v 0 2 5.3
v -1.1 2 5
v -0.8 2 5
v -0.3 2 5
v 0 2 5
v -1.1 2.2 5.6
v -0.8 2.2 5.6
v -0.3 2.2 5.6
v 0 2.2 5.6
v -1.1 2.2 5.3
v -0.8 2.2 5.3
v -0.3 2.2 5.3
v 0 2.2 5.3
v -1.1 2.4 5.9
v -0.8 2.4 5.9
v -0.3 2.4 5.9
v 0 2.4 5.9
v -1.1 2.4 5.6
v -0.8 2.4 5.6
v -0.3 2.4 5.6
v 0 2.4 5.6
v -0.1 2.6 8
v 0 2.6 8
v -0.1 2.6 7.9
v 0 2.6 7.9
v -1.1 2.6 6.2
v -0.8 2.6 6.2
v -0.3 2.6 6.2
v 0 2.6 6.2
v -1.1 2.6 5.9
v -0.8 2.6 5.9
v -0.3 2.6 5.9
v 0 2.6 5.9
v -1.1 2.8 6.5
v -0.8 2.8 6.5
v -0.3 2.8 6.5
v 0 2.8 6.5
v -1.1 2.8 6.2
v -0.8 2.8 6.2
v -0.3 2.8 6.2
v 0 2.8 6.2
v -1.1 3 6.8
v -0.8 3 6.8
v -0.3 3 6.8
v 0 3 6.8
v -1.1 3 6.5
v -0.8 3 6.5
v -0.3 3 6.5
v 0 3 6.5
v -1.1 3.2 8.5
v 0 3.2 8.5
v -0.7 3.2 7.8
v -0.6 3.2 7.8
v -0.5 3.2 7.8
v -0.4 3.2 7.8
v -0.7 3.2 7.7
v -0.6 3.2 7.7
v -0.5 3.2 7.7
v -0.4 3.2 7.7
v -0.7 3.2 7.6
v -0.6 3.2 7.6
v -0.5 3.2 7.6
v -0.4 3.2 7.6
v -0.8 3.2 7.5
v -0.7 3.2 7.5
v -0.6 3.2 7.5
v -0.5 3.2 7.5
v -0.4 3.2 7.5
v -0.3 3.2 7.5
v -1.1 3.2 6.8
v -0.8 3.2 6.8
v -0.3 3.2 6.8
v 0 3.2 6.8
v -0.6 3.4 7.7
v -0.5 3.4 7.7
v -0.6 3.4 7.5
v -0.5 3.4 7.5
v -0.7 3.5 7.7
v -0.6 3.5 7.7
v -0.5 3.5 7.7
v -0.4 3.5 7.7
v -0.7 3.5 7.5
v -0.6 3.5 7.5
v -0.5 3.5 7.5
v -0.4 3.5 7.5
v -0.7 3.7 7.8
v -0.4 3.7 7.8
v -0.7 3.7 7.7
v -0.4 3.7 7.7

# faces
f 3/3/1 2/3/1 1/3/1
f 4/3/1 2/3/1 3/3/1
f 5/3/1 3/3/1 1/3/1
f 6/3/1 3/3/1 5/3/1
f 7/3/1 5/3/1 1/3/1
f 8/3/1 5/3/1 7/3/1
f 9/3/1 7/3/1 1/3/1
f 10/3/1 7/3/1 9/3/1
f 11/3/1 9/3/1 1/3/1
f 12/3/1 9/3/1 11/3/1
f 13/3/1 11/3/1 1/3/1
f 14/3/1 11/3/1 13/3/1
f 15/3/1 13/3/1 1/3/1
f 16/3/1 13/3/1 15/3/1
f 17/3/1 15/3/1 1/3/1
f 18/3/1 15/3/1 17/3/1
f 19/3/1 17/3/1 1/3/1
f 20/3/1 17/3/1 19/3/1
f 21/3/1 19/3/1 1/3/1
f 22/3/1 19/3/1 21/3/1
f 23/3/1 21/3/1 1/3/1
f 24/3/1 21/3/1 23/3/1
f 25/3/1 23/3/1 1/3/1
f 26/3/1 23/3/1 25/3/1
f 27/3/1 25/3/1 1/3/1
f 28/3/1 25/3/1 27/3/1
f 29/3/1 27/3/1 1/3/1
f 30/3/1 27/3/1 29/3/1
f 31/3/1 29/3/1 1/3/1
f 32/3/1 29/3/1 31/3/1
f 37/1/1 34/1/1 33/1/1
f 38/1/1 34/1/1 37/1/1
f 39/1/1 36/1/1 35/1/1
f 40/1/1 36/1/1 39/1/1
f 41/2/1 38/2/1 37/2/1
f 41/2/1 39/2/1 38/2/1
f 41/2/1 40/2/1 39/2/1
f 42/2/1 40/2/1 41/2/1
f 43/2/1 41/2/1 37/2/1
f 44/2/1 41/2/1 43/2/1
f 49/1/1 46/1/1 45/1/1
f 50/1/1 46/1/1 49/1/1
f 51/1/1 48/1/1 47/1/1
f 52/1/1 48/1/1 51/1/1
f 55/2/1 54/2/1 53/2/1
f 56/2/1 54/2/1 55/2/1
f 57/1/2 58/1/2 61/1/2
f 61/1/2 58/1/2 62/1/2
f 59/1/2 60/1/2 63/1/2
f 63/1/2 60/1/2 64/1/2
f 65/2/2 66/2/2 67/2/2
f 67/2/2 66/2/2 68/2/2
f 69/1/2 70/1/2 73/1/2
f 73/1/2 70/1/2 74/1/2
f 71/1/2 72/1/2 75/1/2
f 75/1/2 72/1/2 76/1/2
f 73/2/2 74/2/2 77/2/2
f 74/2/2 75/2/2 77/2/2
f 75/2/2 76/2/2 77/2/2
f 77/2/2 76/2/2 78/2/2
f 73/2/2 77/2/2 79/2/2
f 79/2/2 77/2/2 80/2/2
f 81/3/2 82/3/2 83/3/2
f 83/3/2 82/3/2 84/3/2
f 85/3/2 86/3/2 87/3/2
f 87/3/2 86/3/2 88/3/2
f 85/3/2 87/3/2 89/3/2
f 89/3/2 87/3/2 90/3/2
f 85/3/2 89/3/2 91/3/2
f 91/3/2 89/3/2 92/3/2
f 85/3/2 91/3/2 93/3/2
f 93/3/2 91/3/2 94/3/2
f 85/3/2 93/3/2 95/3/2
f 95/3/2 93/3/2 96/3/2
f 85/3/2 95/3/2 97/3/2
f 97/3/2 95/3/2 98/3/2
f 85/3/2 97/3/2 99/3/2
f 99/3/2 97/3/2 100/3/2
f 85/3/2 99/3/2 101/3/2
f 101/3/2 99/3/2 102/3/2
f 85/3/2 101/3/2 103/3/2
f 103/3/2 101/3/2 104/3/2
f 85/3/2 103/3/2 105/3/2
f 105/3/2 103/3/2 106/3/2
f 85/3/2 105/3/2 107/3/2
f 107/3/2 105/3/2 108/3/2
f 85/3/2 107/3/2 109/3/2
f 109/3/2 107/3/2 110/3/2
f 110/3/2 107/3/2 111/3/2
f 111/3/2 107/3/2 112/3/2
f 85/3/2 109/3/2 113/3/2
f 110/3/2 111/3/2 114/3/2
f 114/3/2 111/3/2 115/3/2
f 113/3/2 114/3/2 115/3/2
f 115/3/2 111/3/2 116/3/2
f 113/3/2 115/3/2 117/3/2
f 117/3/2 115/3/2 118/3/2
f 85/3/2 113/3/2 119/3/2
f 113/3/2 117/3/2 119/3/2
f 119/3/2 117/3/2 120/3/2
f 123/3/3 122/3/3 121/3/3
f 124/3/3 122/3/3 123/3/3
f 127/3/3 126/3/3 125/3/3
f 128/3/3 126/3/3 127/3/3
f 132/1/3 130/1/3 129/1/3
f 133/2/3 131/2/3 130/2/3
f 133/1/3 130/1/3 132/1/3
f 135/2/3 131/2/3 133/2/3
f 136/1/3 135/1/3 134/1/3
f 137/2/3 131/2/3 135/2/3
f 137/1/3 135/1/3 136/1/3
f 138/2/3 131/2/3 137/2/3
f 141/1/3 140/1/3 139/1/3
f 142/1/3 140/1/3 141/1/3
f 145/1/3 144/1/3 143/1/3
f 146/1/3 144/1/3 145/1/3
f 147/3/4 148/3/4 149/3/4
f 149/3/4 148/3/4 150/3/4
f 151/1/4 152/1/4 155/1/4
f 155/1/4 152/1/4 156/1/4
f 153/2/4 154/2/4 158/2/4
f 157/2/4 158/2/4 161/2/4
f 158/2/4 154/2/4 162/2/4
f 161/2/4 158/2/4 162/2/4
f 159/1/4 160/1/4 163/1/4
f 163/1/4 160/1/4 164/1/4
f 162/2/4 154/2/4 165/2/4
f 165/2/4 154/2/4 166/2/4
f 167/1/4 168/1/4 170/1/4
f 168/2/4 169/2/4 171/2/4
f 170/1/4 168/1/4 171/1/4
f 171/2/4 169/2/4 172/2/4
f 172/2/4 169/2/4 173/2/4
f 171/2/4 172/2/4 175/2/4
f 175/2/4 172/2/4 176/2/4
f 174/1/4 175/1/4 178/1/4
f 176/2/4 177/2/4 179/2/4
f 178/1/4 175/1/4 179/1/4
f 175/2/4 176/2/4 179/2/4
f 179/2/4 177/2/4 180/2/4
f 181/3/4 182/3/4 183/3/4
f 183/3/4 182/3/4 184/3/4
f 183/2/4 184/2/4 185/2/4
f 185/2/4 184/2/4 186/2/4
f 185/3/4 186/3/4 187/3/4
f 187/3/4 186/3/4 188/3/4
f 189/3/4 190/3/4 191/3/4
f 191/3/4 190/3/4 192/3/4
f 191/2/4 192/2/4 193/2/4
f 193/2/4 192/2/4 194/2/4
f 193/3/4 194/3/4 195/3/4
f 195/3/4 194/3/4 196/3/4
f 197/3/4 198/3/4 199/3/4
f 199/3/4 198/3/4 200/3/4
f 199/2/4 200/2/4 201/2/4
f 201/2/4 200/2/4 202/2/4
f 201/3/4 202/3/4 203/3/4
f 203/3/4 202/3/4 204/3/4
f 205/3/4 206/3/4 207/3/4
f 207/3/4 206/3/4 208/3/4
f 207/2/4 208/2/4 209/2/4
f 209/2/4 208/2/4 210/2/4
f 209/3/4 210/3/4 211/3/4
f 211/3/4 210/3/4 212/3/4
f 213/3/4 214/3/4 215/3/4
f 215/3/4 214/3/4 216/3/4
f 215/2/4 216/2/4 217/2/4
f 217/2/4 216/2/4 218/2/4
f 217/3/4 218/3/4 219/3/4
f 219/3/4 218/3/4 220/3/4
f 221/3/4 222/3/4 223/3/4
f 223/3/4 222/3/4 224/3/4
f 223/2/4 224/2/4 225/2/4
f 225/2/4 224/2/4 226/2/4
f 225/3/4 226/3/4 227/3/4
f 227/3/4 226/3/4 228/3/4
f 229/3/4 230/3/4 231/3/4
f 231/3/4 230/3/4 232/3/4
f 231/2/4 232/2/4 233/2/4
f 233/2/4 232/2/4 234/2/4
f 233/3/4 234/3/4 235/3/4
f 235/3/4 234/3/4 236/3/4
f 237/3/4 238/3/4 239/3/4
f 239/3/4 238/3/4 240/3/4
f 239/2/4 240/2/4 241/2/4
f 241/2/4 240/2/4 242/2/4
f 241/3/4 242/3/4 243/3/4
f 243/3/4 242/3/4 244/3/4
f 245/3/4 246/3/4 247/3/4
f 247/3/4 246/3/4 248/3/4
f 247/2/4 248/2/4 249/2/4
f 249/2/4 248/2/4 250/2/4
f 249/3/4 250/3/4 251/3/4
f 251/3/4 250/3/4 252/3/4
f 253/3/4 254/3/4 255/3/4
f 255/3/4 254/3/4 256/3/4
f 255/2/4 256/2/4 257/2/4
f 257/2/4 256/2/4 258/2/4
f 257/3/4 258/3/4 259/3/4
f 259/3/4 258/3/4 260/3/4
f 261/3/4 262/3/4 263/3/4
f 263/3/4 262/3/4 264/3/4
f 263/2/4 264/2/4 265/2/4
f 265/2/4 264/2/4 266/2/4
f 265/3/4 266/3/4 267/3/4
f 267/3/4 266/3/4 268/3/4
f 269/3/4 270/3/4 271/3/4
f 271/3/4 270/3/4 272/3/4
f 271/2/4 272/2/4 273/2/4
f 273/2/4 272/2/4 274/2/4
f 273/3/4 274/3/4 275/3/4
f 275/3/4 274/3/4 276/3/4
f 277/3/4 278/3/4 279/3/4
f 279/3/4 278/3/4 280/3/4
f 279/2/4 280/2/4 281/2/4
f 281/2/4 280/2/4 282/2/4
f 281/3/4 282/3/4 283/3/4
f 283/3/4 282/3/4 284/3/4
f 285/3/4 286/3/4 287/3/4
f 287/3/4 286/3/4 288/3/4
f 287/2/4 288/2/4 289/2/4
f 289/2/4 288/2/4 290/2/4
f 289/3/4 290/3/4 291/3/4
f 291/3/4 290/3/4 292/3/4
f 293/3/4 294/3/4 295/3/4
f 295/3/4 294/3/4 296/3/4
f 295/2/4 296/2/4 297/2/4
f 297/2/4 296/2/4 298/2/4
f 297/3/4 298/3/4 299/3/4
f 299/3/4 298/3/4 300/3/4
f 303/3/5 302/3/5 301/3/5
f 304/3/5 302/3/5 303/3/5
f 305/3/5 303/3/5 301/3/5
f 306/2/5 304/2/5 303/2/5
f 306/3/5 303/3/5 305/3/5
f 307/3/5 302/3/5 304/3/5
f 307/2/5 304/2/5 306/2/5
f 308/3/5 302/3/5 307/3/5
f 311/3/5 310/3/5 309/3/5
f 312/3/5 310/3/5 311/3/5
f 316/2/5 314/2/5 313/2/5
f 317/2/5 314/2/5 316/2/5
f 319/2/5 316/2/5 315/2/5
f 319/2/5 318/2/5 317/2/5
f 319/2/5 317/2/5 316/2/5
f 320/2/5 318/2/5 319/2/5
f 321/2/5 318/2/5 320/2/5
f 322/2/5 318/2/5 321/2/5
f 323/2/5 321/2/5 320/2/5
f 324/2/5 321/2/5 323/2/5
f 325/3/6 326/3/6 329/3/6
f 326/2/6 327/2/6 330/2/6
f 329/3/6 326/3/6 330/3/6
f 327/3/6 328/3/6 331/3/6
f 330/2/6 327/2/6 331/2/6
f 331/3/6 328/3/6 332/3/6
f 333/3/6 334/3/6 337/3/6
f 334/2/6 335/2/6 338/2/6
f 337/3/6 334/3/6 338/3/6
f 335/3/6 336/3/6 339/3/6
f 338/2/6 335/2/6 339/2/6
f 339/3/6 336/3/6 340/3/6
f 341/3/6 342/3/6 345/3/6
f 342/2/6 343/2/6 346/2/6
f 345/3/6 342/3/6 346/3/6
f 343/3/6 344/3/6 347/3/6
f 346/2/6 343/2/6 347/2/6
f 347/3/6 344/3/6 348/3/6
f 349/3/6 350/3/6 353/3/6
f 350/2/6 351/2/6 354/2/6
f 353/3/6 350/3/6 354/3/6
f 351/3/6 352/3/6 355/3/6
f 354/2/6 351/2/6 355/2/6
f 355/3/6 352/3/6 356/3/6
f 357/3/6 358/3/6 361/3/6
f 358/2/6 359/2/6 362/2/6
f 361/3/6 358/3/6 362/3/6
f 359/3/6 360/3/6 363/3/6
f 362/2/6 359/2/6 363/2/6
f 363/3/6 360/3/6 364/3/6
f 365/3/6 366/3/6 369/3/6
f 366/2/6 367/2/6 370/2/6
f 369/3/6 366/3/6 370/3/6
f 367/3/6 368/3/6 371/3/6
f 370/2/6 367/2/6 371/2/6
f 371/3/6 368/3/6 372/3/6
f 373/3/6 374/3/6 377/3/6
f 374/2/6 375/2/6 378/2/6
f 377/3/6 374/3/6 378/3/6
f 375/3/6 376/3/6 379/3/6
f 378/2/6 375/2/6 379/2/6
f 379/3/6 376/3/6 380/3/6
f 381/3/6 382/3/6 385/3/6
f 382/2/6 383/2/6 386/2/6
f 385/3/6 382/3/6 386/3/6
f 383/3/6 384/3/6 387/3/6
f 386/2/6 383/2/6 387/2/6
f 387/3/6 384/3/6 388/3/6
f 389/3/6 390/3/6 393/3/6
f 390/2/6 391/2/6 394/2/6
f 393/3/6 390/3/6 394/3/6
f 391/3/6 392/3/6 395/3/6
f 394/2/6 391/2/6 395/2/6
f 395/3/6 392/3/6 396/3/6
f 397/3/6 398/3/6 401/3/6
f 398/2/6 399/2/6 402/2/6
f 401/3/6 398/3/6 402/3/6
f 399/3/6 400/3/6 403/3/6
f 402/2/6 399/2/6 403/2/6
f 403/3/6 400/3/6 404/3/6
f 405/3/6 406/3/6 409/3/6
f 406/2/6 407/2/6 410/2/6
f 409/3/6 406/3/6 410/3/6
f 407/3/6 408/3/6 411/3/6
f 410/2/6 407/2/6 411/2/6
f 411/3/6 408/3/6 412/3/6
f 413/3/6 414/3/6 415/3/6
f 415/3/6 414/3/6 416/3/6
f 417/3/6 418/3/6 421/3/6
f 418/2/6 419/2/6 422/2/6
f 421/3/6 418/3/6 422/3/6
f 419/3/6 420/3/6 423/3/6
f 422/2/6 419/2/6 423/2/6
f 423/3/6 420/3/6 424/3/6
f 425/3/6 426/3/6 429/3/6
f 426/2/6 427/2/6 430/2/6
f 429/3/6 426/3/6 430/3/6
f 427/3/6 428/3/6 431/3/6
f 430/2/6 427/2/6 431/2/6
f 431/3/6 428/3/6 432/3/6
f 433/3/6 434/3/6 437/3/6
f 434/2/6 435/2/6 438/2/6
f 437/3/6 434/3/6 438/3/6
f 435/3/6 436/3/6 439/3/6
f 438/2/6 435/2/6 439/2/6
f 439/3/6 436/3/6 440/3/6
f 441/3/6 442/3/6 443/3/6
f 443/3/6 442/3/6 444/3/6
f 444/3/6 442/3/6 445/3/6
f 445/3/6 442/3/6 446/3/6
f 441/3/6 443/3/6 447/3/6
f 444/3/6 445/3/6 448/3/6
f 448/3/6 445/3/6 449/3/6
f 446/3/6 442/3/6 450/3/6
f 448/3/6 449/3/6 451/3/6
f 449/3/6 450/3/6 451/3/6
f 441/3/6 447/3/6 451/3/6
f 447/3/6 448/3/6 451/3/6
f 451/3/6 450/3/6 452/3/6
f 452/3/6 450/3/6 453/3/6
f 450/3/6 442/3/6 454/3/6
f 453/3/6 450/3/6 454/3/6
f 441/3/6 451/3/6 455/3/6
f 455/3/6 451/3/6 456/3/6
f 452/3/6 453/3/6 457/3/6
f 457/3/6 453/3/6 458/3/6
f 454/3/6 442/3/6 459/3/6
f 459/3/6 442/3/6 460/3/6
f 441/3/6 455/3/6 461/3/6
f 455/2/6 456/2/6 462/2/6
f 461/3/6 455/3/6 462/3/6
f 457/2/6 458/2/6 462/2/6
f 459/2/6 460/2/6 462/2/6
f 458/2/6 459/2/6 462/2/6
f 456/2/6 457/2/6 462/2/6
f 460/3/6 442/3/6 463/3/6
f 462/2/6 460/2/6 463/2/6
f 463/3/6 442/3/6 464/3/6
f 465/2/6 466/2/6 467/2/6
f 467/2/6 466/2/6 468/2/6
f 469/2/6 470/2/6 473/2/6
f 473/2/6 470/2/6 474/2/6
f 471/2/6 472/2/6 475/2/6
f 475/2/6 472/2/6 476/2/6
f 477/2/6 478/2/6 479/2/6
f 479/2/6 478/2/6 480/2/6
