# MagicaVoxel @ Ephtracy

# group
o throne-roomobj

# material
mtllib Throne-Green.mtl
usemtl palette

# normals
vn -1 0 0
vn 1 0 0
vn 0 0 1
vn 0 0 -1
vn 0 -1 0
vn 0 1 0

# texcoords
vt 0.0410156 0.5
vt 0.904297 0.5

# verts
v -0.9 2.9 8
v -0.9 2.9 7.9
v -0.9 2.9 7.5
v -0.9 2.9 7.4
v -0.9 3.1 8
v -0.9 3.1 7.9
v -0.9 3.1 7.5
v -0.9 3.1 7.4
v -0.9 3.5 7.8
v -0.9 3.5 7.4
v -0.9 3.9 8
v -0.9 3.9 7.8
v -0.4 2.9 8
v -0.4 2.9 7.9
v -0.4 2.9 7.5
v -0.4 2.9 7.4
v -0.4 3.1 8
v -0.4 3.1 7.9
v -0.4 3.1 7.5
v -0.4 3.1 7.4
v -0.4 3.3 7.8
v -0.4 3.3 7.4
v -0.4 3.5 7.8
v -0.4 3.5 7.4
v -0.8 2.9 8
v -0.8 2.9 7.9
v -0.8 2.9 7.5
v -0.8 2.9 7.4
v -0.8 3.1 8
v -0.8 3.1 7.9
v -0.8 3.1 7.5
v -0.8 3.1 7.4
v -0.8 3.3 7.8
v -0.8 3.3 7.4
v -0.8 3.5 7.8
v -0.8 3.5 7.4
v -0.3 2.9 8
v -0.3 2.9 7.9
v -0.3 2.9 7.5
v -0.3 2.9 7.4
v -0.3 3.1 8
v -0.3 3.1 7.9
v -0.3 3.1 7.5
v -0.3 3.1 7.4
v -0.3 3.5 7.8
v -0.3 3.5 7.4
v -0.3 3.9 8
v -0.3 3.9 7.8
v -0.9 2.9 8
v -0.9 3.1 8
v -0.9 3.9 8
v -0.8 2.9 8
v -0.8 3.1 8
v -0.4 2.9 8
v -0.4 3.1 8
v -0.3 2.9 8
v -0.3 3.1 8
v -0.3 3.9 8
v -0.9 2.9 7.5
v -0.9 3.1 7.5
v -0.8 2.9 7.5
v -0.8 3.1 7.5
v -0.4 2.9 7.5
v -0.4 3.1 7.5
v -0.3 2.9 7.5
v -0.3 3.1 7.5
v -0.9 2.9 7.9
v -0.9 3.1 7.9
v -0.8 2.9 7.9
v -0.8 3.1 7.9
v -0.4 2.9 7.9
v -0.4 3.1 7.9
v -0.3 2.9 7.9
v -0.3 3.1 7.9
v -0.9 3.5 7.8
v -0.9 3.9 7.8
v -0.8 3.3 7.8
v -0.8 3.5 7.8
v -0.4 3.3 7.8
v -0.4 3.5 7.8
v -0.3 3.5 7.8
v -0.3 3.9 7.8
v -0.9 2.9 7.4
v -0.9 3.1 7.4
v -0.9 3.5 7.4
v -0.8 2.9 7.4
v -0.8 3.1 7.4
v -0.8 3.3 7.4
v -0.8 3.5 7.4
v -0.4 2.9 7.4
v -0.4 3.1 7.4
v -0.4 3.3 7.4
v -0.4 3.5 7.4
v -0.3 2.9 7.4
v -0.3 3.1 7.4
v -0.3 3.5 7.4
v -0.9 2.9 8
v -0.8 2.9 8
v -0.4 2.9 8
v -0.3 2.9 8
v -0.9 2.9 7.9
v -0.8 2.9 7.9
v -0.4 2.9 7.9
v -0.3 2.9 7.9
v -0.9 2.9 7.5
v -0.8 2.9 7.5
v -0.4 2.9 7.5
v -0.3 2.9 7.5
v -0.9 2.9 7.4
v -0.8 2.9 7.4
v -0.4 2.9 7.4
v -0.3 2.9 7.4
v -0.8 3.1 8
v -0.4 3.1 8
v -0.9 3.1 7.9
v -0.8 3.1 7.9
v -0.4 3.1 7.9
v -0.3 3.1 7.9
v -0.9 3.1 7.5
v -0.8 3.1 7.5
v -0.4 3.1 7.5
v -0.3 3.1 7.5
v -0.8 3.1 7.4
v -0.4 3.1 7.4
v -0.8 3.3 7.8
v -0.4 3.3 7.8
v -0.8 3.3 7.4
v -0.4 3.3 7.4
v -0.9 3.5 7.8
v -0.8 3.5 7.8
v -0.4 3.5 7.8
v -0.3 3.5 7.8
v -0.9 3.5 7.4
v -0.8 3.5 7.4
v -0.4 3.5 7.4
v -0.3 3.5 7.4
v -0.9 3.9 8
v -0.3 3.9 8
v -0.9 3.9 7.8
v -0.3 3.9 7.8

# faces
f 5/1/1 2/1/1 1/1/1
f 6/1/1 2/1/1 5/1/1
f 7/1/1 4/1/1 3/1/1
f 8/1/1 4/1/1 7/1/1
f 9/2/1 6/2/1 5/2/1
f 9/2/1 7/2/1 6/2/1
f 9/2/1 8/2/1 7/2/1
f 10/2/1 8/2/1 9/2/1
f 11/2/1 9/2/1 5/2/1
f 12/2/1 9/2/1 11/2/1
f 17/1/1 14/1/1 13/1/1
f 18/1/1 14/1/1 17/1/1
f 19/1/1 16/1/1 15/1/1
f 20/1/1 16/1/1 19/1/1
f 23/2/1 22/2/1 21/2/1
f 24/2/1 22/2/1 23/2/1
f 25/1/2 26/1/2 29/1/2
f 29/1/2 26/1/2 30/1/2
f 27/1/2 28/1/2 31/1/2
f 31/1/2 28/1/2 32/1/2
f 33/2/2 34/2/2 35/2/2
f 35/2/2 34/2/2 36/2/2
f 37/1/2 38/1/2 41/1/2
f 41/1/2 38/1/2 42/1/2
f 39/1/2 40/1/2 43/1/2
f 43/1/2 40/1/2 44/1/2
f 41/2/2 42/2/2 45/2/2
f 42/2/2 43/2/2 45/2/2
f 43/2/2 44/2/2 45/2/2
f 45/2/2 44/2/2 46/2/2
f 41/2/2 45/2/2 47/2/2
f 47/2/2 45/2/2 48/2/2
f 52/1/3 50/1/3 49/1/3
f 53/2/3 51/2/3 50/2/3
f 53/1/3 50/1/3 52/1/3
f 55/2/3 51/2/3 53/2/3
f 56/1/3 55/1/3 54/1/3
f 57/2/3 51/2/3 55/2/3
f 57/1/3 55/1/3 56/1/3
f 58/2/3 51/2/3 57/2/3
f 61/1/3 60/1/3 59/1/3
f 62/1/3 60/1/3 61/1/3
f 65/1/3 64/1/3 63/1/3
f 66/1/3 64/1/3 65/1/3
f 67/1/4 68/1/4 69/1/4
f 69/1/4 68/1/4 70/1/4
f 71/1/4 72/1/4 73/1/4
f 73/1/4 72/1/4 74/1/4
f 75/2/4 76/2/4 78/2/4
f 77/2/4 78/2/4 79/2/4
f 78/2/4 76/2/4 80/2/4
f 79/2/4 78/2/4 80/2/4
f 80/2/4 76/2/4 81/2/4
f 81/2/4 76/2/4 82/2/4
f 83/1/4 84/1/4 86/1/4
f 84/2/4 85/2/4 87/2/4
f 86/1/4 84/1/4 87/1/4
f 87/2/4 85/2/4 88/2/4
f 88/2/4 85/2/4 89/2/4
f 87/2/4 88/2/4 91/2/4
f 91/2/4 88/2/4 92/2/4
f 90/1/4 91/1/4 94/1/4
f 92/2/4 93/2/4 95/2/4
f 94/1/4 91/1/4 95/1/4
f 91/2/4 92/2/4 95/2/4
f 95/2/4 93/2/4 96/2/4
f 101/1/5 98/1/5 97/1/5
f 102/1/5 98/1/5 101/1/5
f 103/1/5 100/1/5 99/1/5
f 104/1/5 100/1/5 103/1/5
f 109/1/5 106/1/5 105/1/5
f 110/1/5 106/1/5 109/1/5
f 111/1/5 108/1/5 107/1/5
f 112/1/5 108/1/5 111/1/5
f 116/2/5 114/2/5 113/2/5
f 117/2/5 114/2/5 116/2/5
f 119/2/5 116/2/5 115/2/5
f 119/2/5 118/2/5 117/2/5
f 119/2/5 117/2/5 116/2/5
f 120/2/5 118/2/5 119/2/5
f 121/2/5 118/2/5 120/2/5
f 122/2/5 118/2/5 121/2/5
f 123/2/5 121/2/5 120/2/5
f 124/2/5 121/2/5 123/2/5
f 125/2/6 126/2/6 127/2/6
f 127/2/6 126/2/6 128/2/6
f 129/2/6 130/2/6 133/2/6
f 133/2/6 130/2/6 134/2/6
f 131/2/6 132/2/6 135/2/6
f 135/2/6 132/2/6 136/2/6
f 137/2/6 138/2/6 139/2/6
f 139/2/6 138/2/6 140/2/6
